<?xml version="1.0" encoding="UTF-8" standalone="no"?>
<svg
   width="512"
   height="408"
   version="1.1"
   id="svg7"
   sodipodi:docname="logo.svg"
   inkscape:version="1.3.1 (9b9bdc1480, 2023-11-25, custom)"
   xmlns:inkscape="http://www.inkscape.org/namespaces/inkscape"
   xmlns:sodipodi="http://sodipodi.sourceforge.net/DTD/sodipodi-0.dtd"
   xmlns="http://www.w3.org/2000/svg"
   xmlns:svg="http://www.w3.org/2000/svg">
  <sodipodi:namedview
     id="namedview7"
     pagecolor="#ffffff"
     bordercolor="#000000"
     borderopacity="0.25"
     inkscape:showpageshadow="2"
     inkscape:pageopacity="0.0"
     inkscape:pagecheckerboard="0"
     inkscape:deskcolor="#d1d1d1"
     showgrid="false"
     inkscape:zoom="1.3378906"
     inkscape:cx="256"
     inkscape:cy="207.78978"
     inkscape:window-width="1210"
     inkscape:window-height="960"
     inkscape:window-x="70"
     inkscape:window-y="27"
     inkscape:window-maximized="1"
     inkscape:current-layer="svg7" />
  <defs
     id="defs6">
    <linearGradient
       id="bs-logo-a"
       x1="76.079"
       x2="523.48"
       y1="10.798"
       y2="365.945"
       gradientUnits="userSpaceOnUse">
      <stop
         stop-color="#9013fe"
         id="stop1" />
      <stop
         offset="1"
         stop-color="#6610f2"
         id="stop2" />
    </linearGradient>
    <linearGradient
       id="bs-logo-b"
       x1="193.508"
       x2="293.514"
       y1="109.74"
       y2="278.872"
       gradientUnits="userSpaceOnUse">
      <stop
         stop-color="#fff"
         id="stop3" />
      <stop
         offset="1"
         stop-color="#f1e5fc"
         id="stop4" />
    </linearGradient>
    <filter
       id="bs-logo-c"
       width="197"
       height="249"
       x="161.901"
       y="83.457"
       color-interpolation-filters="sRGB"
       filterUnits="userSpaceOnUse">
      <feFlood
         flood-opacity="0"
         result="BackgroundImageFix"
         id="feFlood4" />
      <feColorMatrix
         in="SourceAlpha"
         values="0 0 0 0 0 0 0 0 0 0 0 0 0 0 0 0 0 0 127 0"
         id="feColorMatrix4" />
      <feOffset
         dy="4"
         id="feOffset4" />
      <feGaussianBlur
         stdDeviation="8"
         id="feGaussianBlur4" />
      <feColorMatrix
         values="0 0 0 0 0 0 0 0 0 0 0 0 0 0 0 0 0 0 0.15 0"
         id="feColorMatrix5" />
      <feBlend
         in2="BackgroundImageFix"
         result="effect1_dropShadow"
         id="feBlend5" />
      <feBlend
         in="SourceGraphic"
         in2="effect1_dropShadow"
         result="shape"
         id="feBlend6" />
    </filter>
  </defs>
  <path
     fill="url(#bs-logo-a)"
     d="M56.481 53.32C55.515 25.58 77.128 0 106.342 0h299.353c29.214 0 50.827 25.58 49.861 53.32-.928 26.647.277 61.165 8.964 89.31 8.715 28.232 23.411 46.077 47.48 48.37v26c-24.069 2.293-38.765 20.138-47.48 48.37-8.687 28.145-9.892 62.663-8.964 89.311.966 27.739-20.647 53.319-49.861 53.319H106.342c-29.214 0-50.827-25.58-49.86-53.319.927-26.648-.278-61.166-8.966-89.311C38.802 237.138 24.07 219.293 0 217v-26c24.069-2.293 38.802-20.138 47.516-48.37 8.688-28.145 9.893-62.663 8.965-89.31z"
     id="path6" />
  <text
     xml:space="preserve"
     style="font-size:466.667px;fill:#000000"
     x="64.593613"
     y="344.02512"
     id="text7"><tspan
       sodipodi:role="line"
       id="tspan7"
       x="64.593613"
       y="344.02512"
       style="font-style:normal;font-variant:normal;font-weight:normal;font-stretch:normal;font-size:466.667px;font-family:Dyuthi;-inkscape-font-specification:'Dyuthi, Normal';font-variant-ligatures:normal;font-variant-caps:normal;font-variant-numeric:normal;font-variant-east-asian:normal;fill:#ffffff">M</tspan></text>
</svg>
